<svg width="663" class="hire" height="664" viewBox="0 0 663 664" xmlns="http://www.w3.org/2000/svg">
<path d="M267.54 632.858L257.332 631.053L266.969 576.523C268.272 569.153 271.512 563.78 276.69 560.405C281.833 557.023 288.089 555.983 295.459 557.286C303.11 558.638 308.724 561.648 312.299 566.316C315.873 570.984 317.038 576.844 315.791 583.897L305.636 582.102C306.415 577.694 305.824 574.044 303.862 571.152C301.866 568.254 298.575 566.4 293.991 565.59C289.795 564.848 286.177 565.572 283.135 567.762C280.058 569.945 278.082 573.414 277.205 578.168L267.54 632.858Z" fill="black"/>
<path d="M242.841 576.438C240.343 581.555 237.1 585.67 233.11 588.782C229.088 591.88 224.749 593.667 220.093 594.143C215.406 594.605 210.761 593.712 206.159 591.466C199.048 587.995 194.506 582.73 192.533 575.67C190.527 568.595 191.519 560.971 195.509 552.797L195.815 552.17C198.297 547.086 201.509 542.995 205.45 539.899C209.345 536.819 213.659 535.04 218.395 534.563C223.099 534.069 227.799 534.969 232.497 537.262C239.577 540.718 244.119 545.983 246.124 553.058C248.097 560.118 247.105 567.702 243.147 575.811L242.841 576.438ZM234.381 570.994C237.208 565.202 238.143 559.901 237.184 555.09C236.193 550.263 233.445 546.75 228.94 544.551C224.403 542.336 219.935 542.347 215.536 544.583C211.122 546.851 207.352 551.187 204.226 557.59C201.43 563.318 200.536 568.619 201.544 573.494C202.503 578.385 205.236 581.93 209.741 584.129C214.149 586.281 218.561 586.263 222.976 584.075C227.391 581.887 231.193 577.527 234.381 570.994Z" fill="black"/>
<path d="M160.823 506.913C159.042 508.923 158.429 511.154 158.983 513.606C159.487 516.062 161.273 519.365 164.34 523.517C167.38 527.645 169.514 531.258 170.741 534.354C171.942 537.427 172.39 540.215 172.085 542.72C171.753 545.2 170.637 547.513 168.738 549.657C165.58 553.222 161.408 554.908 156.222 554.714C151.008 554.497 146.057 552.311 141.366 548.156C136.434 543.787 133.568 538.977 132.768 533.723C131.941 528.447 133.285 523.825 136.799 519.858L144.277 526.482C142.473 528.519 141.789 531.047 142.225 534.064C142.634 537.058 144.153 539.718 146.779 542.045C149.486 544.443 152.126 545.729 154.699 545.903C157.271 546.077 159.4 545.213 161.086 543.309C162.677 541.514 163.166 539.531 162.552 537.361C161.939 535.191 160.151 532.053 157.188 527.945C154.199 523.814 152.062 520.151 150.777 516.957C149.493 513.762 149.026 510.861 149.375 508.253C149.674 505.647 150.856 503.178 152.922 500.847C156.365 496.96 160.685 495.215 165.884 495.61C171.059 496.032 176.126 498.44 181.084 502.832C184.569 505.919 187.105 509.266 188.693 512.873C190.281 516.48 190.866 520.06 190.447 523.611C189.977 527.165 188.603 530.229 186.323 532.802L178.885 526.213C180.959 523.602 181.725 520.74 181.181 517.627C180.587 514.518 178.762 511.61 175.707 508.903C172.892 506.41 170.142 504.979 167.456 504.609C164.72 504.242 162.509 505.01 160.823 506.913Z"/>
<path d="M105.378 496.842C98.4419 496.116 93.0434 492.801 89.1824 486.897C82.4598 476.619 84.8677 467.642 96.4062 459.967L128.546 438.947L133.985 447.262L101.8 468.312C98.3135 470.635 96.2505 473.14 95.6111 475.826C94.9522 478.481 95.7104 481.473 97.886 484.799C99.6499 487.496 101.917 489.393 104.689 490.49C107.46 491.587 110.387 491.94 113.469 491.55L148.126 468.884L153.564 477.2L84.5203 522.357L79.0815 514.041L105.378 496.842Z"/>
<path d="M83.5763 352.551L88.2711 384.976L109.525 389.334L111.049 399.859L29.3737 381.51L28.0807 372.58L101.19 331.766L102.706 342.237L83.5763 352.551ZM79.426 383.109L75.6163 356.797L41.3253 375.221L79.426 383.109Z"/>
<path d="M57.8755 287.07C57.4668 288.539 57.1694 290.146 56.9834 291.89C56.2926 298.371 58.5832 303.062 63.8553 305.965L104.873 310.338L103.819 320.218L46.0317 314.057L47.0566 304.444L53.7497 304.996C48.9324 301.205 46.8407 296.337 47.4746 290.391C47.6796 288.468 48.0845 287.035 48.6892 286.091L57.8755 287.07Z"/>
<path d="M70.4504 238.945C69.7865 240.317 69.2076 241.845 68.7136 243.529C66.879 249.782 68.2969 254.807 72.9673 258.603L112.549 270.216L109.752 279.75L53.9868 263.39L56.7086 254.113L63.1963 255.848C59.1315 251.26 57.9409 246.097 59.6243 240.359C60.1687 238.503 60.8225 237.165 61.5858 236.344L70.4504 238.945Z"/>
<path d="M94.6681 228.757C89.7178 225.945 85.814 222.45 82.9565 218.274C80.1168 214.066 78.6045 209.624 78.4195 204.948C78.2522 200.24 79.4332 195.66 81.9624 191.208C85.8713 184.328 91.4102 180.123 98.5791 178.595C105.766 177.036 113.313 178.503 121.221 182.995L121.828 183.34C126.747 186.135 130.629 189.596 133.473 193.724C136.304 197.802 137.809 202.22 137.99 206.976C138.188 211.701 136.996 216.337 134.414 220.882C130.523 227.732 124.984 231.936 117.797 233.495C110.628 235.023 103.121 233.559 95.2753 229.102L94.6681 228.757ZM100.63 220.654C106.234 223.838 111.467 225.102 116.329 224.445C121.208 223.758 124.886 221.235 127.362 216.876C129.856 212.486 130.125 208.026 128.168 203.497C126.18 198.949 122.088 194.916 115.893 191.396C110.351 188.248 105.116 187.024 100.188 187.725C95.2461 188.377 91.5372 190.882 89.061 195.241C86.6378 199.506 86.3802 203.911 88.2881 208.454C90.196 212.997 94.3101 217.064 100.63 220.654Z"/>
<path d="M183.852 140.899L162.589 100.331L169.999 93.7113L196.101 148.322L190.093 153.689L150.215 130.257L169.305 172.262L163.297 177.63L112.001 145.528L119.371 138.943L156.888 163.765L137.996 122.303L143.964 116.971L183.852 140.899Z"/>
<path d="M245.172 104.938C244.085 102.483 242.312 100.997 239.851 100.48C237.409 99.9164 233.662 100.165 228.61 101.226C223.591 102.273 219.419 102.71 216.092 102.537C212.799 102.35 210.077 101.597 207.927 100.278C205.809 98.9437 204.171 96.9669 203.011 94.3474C201.084 89.9925 201.287 85.4973 203.621 80.8618C205.988 76.2118 210.037 72.6188 215.767 70.0828C221.792 67.4163 227.359 66.8123 232.468 68.2709C237.61 69.715 241.254 72.8601 243.399 77.7062L234.263 81.7494C233.162 79.2609 231.148 77.5871 228.223 76.7282C225.33 75.8548 222.28 76.1281 219.071 77.5483C215.764 79.012 213.496 80.8772 212.267 83.144C211.038 85.4107 210.938 87.7065 211.967 90.0313C212.938 92.2251 214.538 93.4947 216.766 93.8399C218.994 94.1851 222.592 93.8653 227.56 92.8805C232.56 91.8812 236.78 91.4624 240.219 91.6241C243.659 91.7858 246.491 92.5682 248.718 93.9715C250.963 95.3274 252.715 97.4298 253.976 100.278C256.077 105.026 255.867 109.681 253.344 114.244C250.806 118.774 246.509 122.379 240.451 125.06C236.194 126.944 232.095 127.857 228.154 127.8C224.213 127.743 220.716 126.785 217.661 124.926C214.624 123.02 212.411 120.495 211.019 117.352L220.106 113.331C221.617 116.303 223.901 118.19 226.957 118.991C230.032 119.745 233.436 119.296 237.169 117.644C240.607 116.122 243.053 114.217 244.507 111.929C245.979 109.593 246.201 107.263 245.172 104.938Z"/>
<path d="M279.043 49.7659L279.794 56.1729C283.667 50.8547 289.21 47.9246 296.423 47.3827C304.529 46.7736 310.279 49.4656 313.673 55.4585C315.392 52.5285 317.723 50.0912 320.665 48.1465C323.642 46.1992 327.238 45.0672 331.451 44.7506C344.163 43.7955 351.132 50.0405 352.357 63.4858L355.275 102.317L345.367 103.061L342.493 64.8195C342.182 60.6776 341.003 57.66 338.958 55.767C336.91 53.8382 333.654 53.0415 329.191 53.3769C325.513 53.6532 322.543 54.9895 320.282 57.3858C318.017 59.7463 316.828 62.7981 316.715 66.5411L319.604 104.997L309.642 105.746L306.789 67.7717C306.155 59.3449 301.715 55.4415 293.467 56.0612C286.968 56.5495 282.73 59.6508 280.754 65.3651L283.933 107.677L274.025 108.422L269.67 50.4702L279.043 49.7659Z"/>
<path d="M383.054 110.424L373.323 108.409L385.106 51.5008L394.836 53.5154L383.054 110.424ZM387.443 36.2426C387.769 34.6647 388.519 33.4303 389.69 32.5394C390.897 31.6557 392.447 31.4098 394.341 31.8019C396.234 32.1939 397.559 33.0351 398.316 34.3253C399.073 35.6156 399.288 37.0496 398.961 38.6275C398.634 40.2053 397.871 41.4186 396.672 42.2672C395.472 43.1158 393.926 43.3441 392.032 42.9521C390.139 42.5601 388.81 41.7364 388.046 40.4813C387.317 39.2333 387.116 37.8204 387.443 36.2426Z"/>
<path d="M439.661 52.4319L434.753 65.6206L444.922 69.4045L442.243 76.6029L432.075 72.819L419.505 106.596C418.693 108.777 418.535 110.59 419.029 112.035C419.535 113.446 420.879 114.558 423.06 115.369C424.134 115.769 425.686 116.117 427.715 116.414L424.905 123.964C422.205 123.724 419.698 123.173 417.382 122.311C413.221 120.763 410.552 118.337 409.374 115.033C408.196 111.729 408.469 107.762 410.193 103.131L422.762 69.3535L412.845 65.6632L415.524 58.4648L425.441 62.1551L430.349 48.9664L439.661 52.4319Z"/>
<path d="M474.045 92.0486C480.69 89.934 486.965 90.8072 492.868 94.668C503.147 101.39 504.54 110.58 497.045 122.236L476.026 154.376L467.71 148.938L488.758 116.752C491.021 113.227 491.907 110.105 491.417 107.388C490.956 104.691 489.062 102.255 485.736 100.079C483.039 98.3153 480.201 97.4863 477.222 97.5921C474.244 97.6978 471.421 98.5471 468.753 100.14L446.088 134.798L437.772 129.359L482.926 60.3133L491.242 65.7518L474.045 92.0486Z"/>
<path d="M545.911 189.085L530.223 168.087L536.721 163.233L552.408 184.231L545.911 189.085Z"/>
<path d="M595.882 240.187C602.327 242.851 606.564 247.561 608.592 254.317C612.123 266.08 607.268 274.006 594.027 278.093L557.245 289.134L554.388 279.617L591.221 268.56C595.224 267.321 597.912 265.505 599.287 263.111C600.672 260.751 600.793 257.668 599.651 253.861C598.724 250.774 597.088 248.312 594.741 246.474C592.395 244.636 589.689 243.467 586.623 242.967L546.96 254.873L544.103 245.356L623.12 221.636L625.977 231.153L595.882 240.187Z"/>
<path d="M559.898 317.86L559.03 307.962L616.923 302.885L617.791 312.784L559.898 317.86ZM632.209 300.736C633.814 300.595 635.212 300.958 636.402 301.824C637.595 302.726 638.276 304.14 638.445 306.066C638.614 307.992 638.19 309.503 637.171 310.599C636.153 311.695 634.841 312.313 633.236 312.454C631.631 312.595 630.25 312.213 629.092 311.308C627.934 310.403 627.271 308.987 627.102 307.061C626.933 305.135 627.34 303.625 628.323 302.533C629.308 301.476 630.604 300.877 632.209 300.736Z"/>
<path d="M607.751 368.65C608.105 367.167 608.342 365.55 608.462 363.8C608.91 357.298 606.446 352.696 601.069 349.992L559.916 347.157L560.599 337.244L618.577 341.238L617.912 350.883L611.203 350.583C616.159 354.19 618.432 358.977 618.021 364.943C617.888 366.872 617.537 368.319 616.968 369.285L607.751 368.65Z"/>
<path d="M549.062 400.398C551.328 392.853 555.64 387.456 562 384.206C568.394 380.966 575.74 380.592 584.04 383.084L585.789 383.61C591.31 385.268 595.917 387.791 599.61 391.181C603.327 394.615 605.837 398.584 607.139 403.087C608.465 407.635 608.464 412.121 607.136 416.545C604.963 423.782 600.891 428.69 594.919 431.271C588.947 433.852 581.52 433.809 572.638 431.142L568.677 429.953L579.999 392.246C574.47 390.736 569.551 390.997 565.239 393.029C560.951 395.107 558.097 398.512 556.676 403.244C555.667 406.605 555.498 409.658 556.169 412.402C556.841 415.146 558.046 417.732 559.784 420.161L553.512 424.614C547.745 417.798 546.262 409.726 549.062 400.398ZM599.316 414.198C600.47 410.357 600.032 406.711 598.002 403.26C596.007 399.819 592.581 397.034 587.725 394.902L579.353 422.784L580.074 423C584.991 424.178 589.121 423.997 592.462 422.458C595.837 420.929 598.122 418.176 599.316 414.198Z"/>
<path d="M558.8 510.823L554.007 506.505C554.607 513.056 552.376 518.916 547.315 524.083C541.627 529.89 535.531 531.662 529.025 529.4C529.667 532.736 529.525 536.105 528.598 539.508C527.646 542.936 525.692 546.159 522.735 549.178C513.815 558.285 504.458 558.192 494.664 548.899L466.845 521.651L473.798 514.552L501.195 541.387C504.162 544.293 507.039 545.783 509.825 545.855C512.637 545.953 515.608 544.403 518.74 541.205C521.321 538.57 522.67 535.607 522.788 532.314C522.932 529.046 521.811 525.968 519.426 523.081L491.876 496.096L498.867 488.959L526.071 515.606C532.108 521.519 538.021 521.521 543.809 515.612C548.369 510.956 549.506 505.83 547.22 500.232L516.907 470.541L523.86 463.442L565.377 504.108L558.8 510.823Z"/>
<path d="M428.947 538.547C436.041 535.121 442.933 534.655 449.626 537.149C456.333 539.675 461.571 544.84 465.34 552.643L466.134 554.287C468.641 559.478 469.892 564.58 469.888 569.593C469.866 574.653 468.635 579.185 466.194 583.187C463.736 587.237 460.427 590.267 456.268 592.275C449.465 595.561 443.094 595.874 437.157 593.214C431.22 590.554 426.235 585.049 422.202 576.698L420.403 572.974L455.855 555.852C453.234 550.755 449.718 547.303 445.307 545.497C440.879 543.739 436.44 543.934 431.991 546.083C428.831 547.609 426.466 549.547 424.896 551.895C423.327 554.244 422.233 556.88 421.617 559.802L414.096 558.185C415.226 549.329 420.177 542.782 428.947 538.547ZM452.717 584.924C456.329 583.18 458.721 580.394 459.895 576.566C461.084 572.771 460.824 568.363 459.115 563.343L432.901 576.004L433.228 576.681C435.682 581.103 438.605 584.026 441.996 585.449C445.403 586.905 448.977 586.73 452.717 584.924Z"/>
<path d="M354.989 582.362L363.906 581.393L370.665 637.117L360.306 638.243L354.989 582.362ZM363.129 564.297C363.303 565.899 362.967 567.286 362.122 568.458C361.245 569.67 359.846 570.38 357.924 570.589C356.001 570.798 354.482 570.405 353.365 569.41C352.252 568.45 351.609 567.17 351.435 565.568C351.261 563.966 351.614 562.577 352.495 561.4C353.379 560.26 354.783 559.585 356.705 559.376C358.627 559.167 360.143 559.525 361.252 560.449C362.329 561.412 362.955 562.695 363.129 564.297Z" fill="black"/>
</svg>
